<?xml version="1.0" encoding="utf-8"?>
<!-- Generator: Adobe Illustrator 16.2.1, SVG Export Plug-In . SVG Version: 6.00 Build 0)  -->
<!DOCTYPE svg PUBLIC "-//W3C//DTD SVG 1.1//EN" "http://www.w3.org/Graphics/SVG/1.1/DTD/svg11.dtd" [
  <!ENTITY ns_extend "http://ns.adobe.com/Extensibility/1.0/">
  <!ENTITY ns_ai "http://ns.adobe.com/AdobeIllustrator/10.0/">
  <!ENTITY ns_graphs "http://ns.adobe.com/Graphs/1.0/">
  <!ENTITY ns_vars "http://ns.adobe.com/Variables/1.0/">
  <!ENTITY ns_imrep "http://ns.adobe.com/ImageReplacement/1.0/">
  <!ENTITY ns_sfw "http://ns.adobe.com/SaveForWeb/1.0/">
  <!ENTITY ns_custom "http://ns.adobe.com/GenericCustomNamespace/1.0/">
  <!ENTITY ns_adobe_xpath "http://ns.adobe.com/XPath/1.0/">
]>
<svg version="1.1" id="Layer_1" xmlns:x="&ns_extend;" xmlns:i="&ns_ai;" xmlns:graph="&ns_graphs;"
  xmlns="http://www.w3.org/2000/svg" xmlns:xlink="http://www.w3.org/1999/xlink" x="0px" y="0px" width="87.609px"
  height="31.25px" viewBox="0 0 87.609 31.25" enable-background="new 0 0 87.609 31.25" xml:space="preserve">
<metadata>
  <sfw xmlns="&ns_sfw;">
    <slices></slices>
    <sliceSourceBounds  height="38.496" width="93" y="-3.749" x="-3.171" bottomLeftOrigin="true"></sliceSourceBounds>
  </sfw>
</metadata>
<g>
  <g>
    <path fill="#ADADAD" d="M46.428,8.375c-4.181,0-7.118,3.039-7.118,6.594c0,3.041,2.336,6.406,6.703,6.406
      c4.479,0,6.896-3.395,6.896-6.594C52.91,11.496,50.462,8.375,46.428,8.375z M49.546,19.154c-0.646,0.867-1.769,1.383-2.859,1.383
      c-3.396,0-4.771-4.422-4.771-7.107c0-1.168,0.197-2.362,1.292-3.312c0.675-0.57,1.603-0.925,2.525-0.925
      c3.479,0,4.658,4.56,4.658,6.946C50.389,17.2,50.22,18.285,49.546,19.154z"/>
    <path fill="#ADADAD" d="M81.447,20.125c-3.709,0-5.24-2.074-5.72-5.75l1.933,0.004l6.739-2.666
      c-0.194-0.643-0.558-1.84-1.944-2.758c-0.836-0.529-1.867-0.78-2.87-0.78c-2.865,0-6.375,2.117-6.375,6.437
      c0,2.089,0.864,4.484,2.839,5.879c1.424,1.028,2.813,1.086,3.703,1.086c3.416,0,5.358-2.5,5.358-2.5
      C84.163,19.548,82.87,20.125,81.447,20.125z M75.66,12.825c0.109-3.057,2.029-3.851,3.146-3.851c1.506,0,2.872,1.346,2.872,2.458
      c0,0.392-0.122,0.56-0.649,0.752l-5.301,2.188c-0.005-0.032-0.015-0.061-0.018-0.094C75.71,14.27,75.643,13.289,75.66,12.825z"/>
    <path fill="#ADADAD" d="M71.11,19.48V2.875c0-0.617,0.199-1.066,1-1.5h-3.8l-1.802,1h2v17.4c0,0.506-0.349,0.793-1,1.6h5.103
      l1-0.734c0,0-0.834-0.022-1.313-0.096C71.365,20.407,71.11,20.375,71.11,19.48z"/>
    <path fill="#ADADAD" d="M31.429,8.375c-4.182,0-7.119,3.039-7.119,6.594c0,3.041,2.336,6.406,6.703,6.406
      c4.479,0,6.896-3.395,6.896-6.594C37.91,11.496,35.462,8.375,31.429,8.375z M34.546,19.154c-0.646,0.867-1.769,1.383-2.859,1.383
      c-3.396,0-4.771-4.422-4.771-7.107c0-1.168,0.197-2.362,1.292-3.312c0.675-0.57,1.603-0.925,2.525-0.925
      c3.479,0,4.658,4.56,4.658,6.946C35.389,17.2,35.22,18.285,34.546,19.154z"/>
    <path fill="#ADADAD" d="M21.738,3.805c-0.621-0.426-3.112-2.33-8.262-2.33C6.262,1.475,2.11,6.571,2.11,12.057
      c0,4,2.907,10.22,10.717,10.22c3.3,0,6.158-0.625,8.884-1.414v-3.451c0-0.283,0-0.865,0-1.152c0-0.311,0.169-0.49,0.368-0.658
      l0.899-0.803H16.81l-1.699,1.26h4v4.382c-0.85,0.34-2.066,0.715-3.878,0.715c-6.166,0-10.19-4.979-10.19-10.297
      c0-4.949,3.346-8.347,7.813-8.347c3.336,0,5.291,1.689,6.254,2.623l-0.726,1.148l0.833-0.121L21.738,3.805z"/>
    <path fill="#ADADAD" d="M66.71,8.375h-5.198c-1.519,0-3.572,0.225-5.175,1.544c-1.209,1.04-1.825,2.489-1.825,3.782
      c0,2.197,2.112,4.674,5.101,4.674l0.446-0.018c-0.1,0.289-0.104,0.613-0.104,0.983c0,0.873,0.448,1.232,0.846,1.74
      c-1.268,0.086-3.39,0.26-5.188,1.19c-1.719,0.892-2.5,2.146-2.5,3.396c0,2.086,2.108,4.205,6.195,4.205
      c4.848,0,7.104-2.5,7.104-5.242c0-1.913-1.612-3.478-3.31-4.717c-0.475-0.345-0.688-0.652-0.688-1.271
      c0-0.619,0.315-1.013,0.979-1.449c1.291-0.854,2.115-1.917,2.115-4.001c0-2.144-1.148-3.284-1.799-3.819h1.399L66.71,8.375z
      M64.71,25.473c0,1.732-1.386,3.104-4.061,3.104c-2.982,0-5.143-1.313-5.143-3.3c0-1.989,2-2.707,2.612-2.932
      c1.17-0.395,2.679-0.447,2.929-0.447c0.278,0,0.418,0,0.642,0.024C63.811,23.438,64.71,24.042,64.71,25.473z M62.671,16.691
      c-0.479,0.461-1.281,0.805-2.027,0.805c-2.564,0-3.781-3.094-3.781-5.021c0-0.748,0.201-1.625,0.709-2.229
      c0.477-0.576,1.312-0.95,2.089-0.95c2.477,0,3.755,3.079,3.755,5.294C63.412,15.108,63.354,16.027,62.671,16.691z"/>
  </g>
  <g>
    <defs>
      <path id="SVGID_1_" d="M49.57,19.156c-0.646,0.867-1.77,1.383-2.861,1.383c-3.395,0-4.77-4.422-4.77-7.106
        c0-1.168,0.196-2.361,1.292-3.312c0.675-0.57,1.601-0.925,2.524-0.925c3.48,0,4.658,4.56,4.658,6.945
        C50.411,17.203,50.243,18.287,49.57,19.156z M46.45,8.377c-4.179,0-7.117,3.039-7.117,6.594c0,3.041,2.336,6.406,6.703,6.406
        c4.479,0,6.896-3.395,6.896-6.593C52.933,11.499,50.486,8.377,46.45,8.377z"/>
    </defs>
    <clipPath id="SVGID_2_">
      <use xlink:href="#SVGID_1_"  overflow="visible"/>
    </clipPath>
    <rect x="34.333" y="3.377" clip-path="url(#SVGID_2_)" fill-rule="evenodd" clip-rule="evenodd" fill="#97B9EF" width="23.599" height="23"/>
  </g>
 <g>
    <defs>
      <path id="SVGID_3_" d="M75.683,12.828c0.108-3.058,2.029-3.851,3.145-3.851c1.506,0,2.873,1.346,2.873,2.457
        c0,0.393-0.123,0.561-0.649,0.752l-5.302,2.188c-0.004-0.032-0.014-0.062-0.016-0.096C75.734,14.272,75.665,13.292,75.683,12.828
        z M81.47,20.127c-3.709,0-5.24-2.074-5.722-5.75l1.935,0.004l6.738-2.666c-0.193-0.643-0.558-1.84-1.943-2.758
        c-0.836-0.529-1.867-0.78-2.869-0.78c-2.867,0-6.375,2.117-6.375,6.437c0,2.091,0.863,4.484,2.838,5.88
        c1.424,1.029,2.812,1.086,3.703,1.086c3.416,0,5.357-2.5,5.357-2.5C84.187,19.551,82.894,20.127,81.47,20.127z"/>
    </defs>
    <clipPath id="SVGID_4_">
      <use xlink:href="#SVGID_3_"  overflow="visible"/>
    </clipPath>
      <rect x="68.234" y="3.177" clip-path="url(#SVGID_4_)" fill-rule="evenodd" clip-rule="evenodd" fill="#97B9EF" width="21.898" height="23.403"/>
  </g>
  <g>
    <defs>
      <path id="SVGID_5_" d="M71.133,19.482V2.877c0-0.617,0.198-1.066,1-1.5h-3.8l-1.801,1h2v17.4c0,0.506-0.35,0.793-1,1.6h5.103
        l1-0.734c0,0-0.834-0.021-1.312-0.096C71.388,20.41,71.133,20.377,71.133,19.482z"/>
    </defs>
    <clipPath id="SVGID_6_">
      <use xlink:href="#SVGID_5_"  overflow="visible"/>
    </clipPath>
    <rect x="61.532" y="-3.623" clip-path="url(#SVGID_6_)" fill-rule="evenodd" clip-rule="evenodd" fill="#97B9EF" width="17.103" height="30"/>
  </g>
  <g>
    <defs>
      <path id="SVGID_7_" d="M34.569,19.156c-0.646,0.867-1.769,1.383-2.86,1.383c-3.396,0-4.771-4.422-4.771-7.106
        c0-1.168,0.197-2.361,1.292-3.312c0.675-0.57,1.602-0.925,2.525-0.925c3.479,0,4.658,4.56,4.658,6.945
        C35.412,17.203,35.243,18.287,34.569,19.156z M31.452,8.377c-4.181,0-7.119,3.039-7.119,6.594c0,3.041,2.336,6.406,6.703,6.406
        c4.479,0,6.896-3.395,6.896-6.593C37.933,11.499,35.485,8.377,31.452,8.377z"/>
    </defs>
    <clipPath id="SVGID_8_">
      <use xlink:href="#SVGID_7_"  overflow="visible"/>
    </clipPath>
    <rect x="19.333" y="3.377" clip-path="url(#SVGID_8_)" fill-rule="evenodd" clip-rule="evenodd" fill="#97B9EF" width="23.599" height="23"/>
  </g>
  <g>
    <defs>
      <path id="SVGID_9_" d="M21.761,3.808c-0.621-0.426-3.112-2.33-8.262-2.33c-7.214,0-11.366,5.095-11.366,10.582
        c0,4,2.907,10.222,10.717,10.222c3.3,0,6.158-0.625,8.884-1.414v-3.451v-1.152c0-0.311,0.169-0.49,0.368-0.658l0.899-0.804
        h-6.168l-1.699,1.26h4v4.383c-0.85,0.34-2.066,0.715-3.878,0.715c-6.166,0-10.19-4.979-10.19-10.297
        c0-4.949,3.345-8.347,7.812-8.347c3.336,0,5.291,1.689,6.254,2.623l-0.725,1.148l0.833-0.121L21.761,3.808z"/>
    </defs>
    <clipPath id="SVGID_10_">
      <use xlink:href="#SVGID_9_"  overflow="visible"/>
    </clipPath>
    <rect x="-2.867" y="-3.522" clip-path="url(#SVGID_10_)" fill-rule="evenodd" clip-rule="evenodd" fill="#97B9EF" width="30.868" height="30.804"/>
  </g>
  <g>
    <defs>
      <path id="SVGID_11_" d="M62.695,16.693c-0.479,0.461-1.283,0.805-2.029,0.805c-2.562,0-3.78-3.093-3.78-5.021
        c0-0.748,0.201-1.625,0.709-2.229c0.479-0.576,1.312-0.95,2.09-0.95c2.477,0,3.756,3.079,3.756,5.294
        C63.435,15.11,63.376,16.03,62.695,16.693z M64.734,25.475c0,1.732-1.387,3.105-4.062,3.105c-2.98,0-5.142-1.314-5.142-3.301
        c0-1.988,2-2.707,2.611-2.932c1.17-0.395,2.68-0.447,2.93-0.447c0.277,0,0.418,0,0.642,0.023
        C63.833,23.439,64.734,24.045,64.734,25.475z M66.734,8.377h-5.199c-1.518,0-3.571,0.225-5.174,1.544
        c-1.209,1.04-1.826,2.489-1.826,3.782c0,2.197,2.113,4.673,5.101,4.673l0.446-0.018c-0.1,0.289-0.104,0.613-0.104,0.982
        c0,0.873,0.447,1.232,0.846,1.74c-1.268,0.086-3.391,0.26-5.188,1.191c-1.72,0.891-2.5,2.145-2.5,3.395
        c0,2.086,2.108,4.205,6.194,4.205c4.849,0,7.105-2.5,7.105-5.242c0-1.912-1.613-3.477-3.312-4.717
        c-0.475-0.344-0.688-0.652-0.688-1.271c0-0.617,0.313-1.012,0.979-1.447c1.291-0.855,2.115-1.918,2.115-4.003
        c0-2.144-1.147-3.283-1.799-3.818h1.398L66.734,8.377z"/>
    </defs>
    <clipPath id="SVGID_12_">
      <use xlink:href="#SVGID_11_"  overflow="visible"/>
    </clipPath>
    <rect x="48.135" y="3.377" clip-path="url(#SVGID_12_)" fill-rule="evenodd" clip-rule="evenodd" fill="#97B9EF" width="23.599" height="31.496"/>
  </g>
</g>
</svg>
