<?xml version="1.0" encoding="utf-8"?>
<!-- Generator: Adobe Illustrator 16.2.1, SVG Export Plug-In . SVG Version: 6.00 Build 0)  -->
<!DOCTYPE svg PUBLIC "-//W3C//DTD SVG 1.0//EN" "http://www.w3.org/TR/2001/REC-SVG-20010904/DTD/svg10.dtd" [
  <!ENTITY ns_extend "http://ns.adobe.com/Extensibility/1.0/">
  <!ENTITY ns_ai "http://ns.adobe.com/AdobeIllustrator/10.0/">
  <!ENTITY ns_graphs "http://ns.adobe.com/Graphs/1.0/">
  <!ENTITY ns_vars "http://ns.adobe.com/Variables/1.0/">
  <!ENTITY ns_imrep "http://ns.adobe.com/ImageReplacement/1.0/">
  <!ENTITY ns_sfw "http://ns.adobe.com/SaveForWeb/1.0/">
  <!ENTITY ns_custom "http://ns.adobe.com/GenericCustomNamespace/1.0/">
  <!ENTITY ns_adobe_xpath "http://ns.adobe.com/XPath/1.0/">
]>
<svg version="1.0" id="Layer_1" xmlns:x="&ns_extend;" xmlns:i="&ns_ai;" xmlns:graph="&ns_graphs;"
   xmlns="http://www.w3.org/2000/svg" xmlns:xlink="http://www.w3.org/1999/xlink" x="0px" y="0px" width="87.609px"
   height="31.25px" viewBox="0 0 87.609 31.25" enable-background="new 0 0 87.609 31.25" xml:space="preserve">
<metadata>
  <sfw  xmlns="&ns_sfw;">
    <slices></slices>
    <sliceSourceBounds  width="83" height="29" x="37.805" y="59.75" bottomLeftOrigin="true"></sliceSourceBounds>
  </sfw>
</metadata>
<g>
  <g>
    <path fill="#FFFFFF" d="M46.428,8.375c-4.18,0-7.118,3.039-7.118,6.594c0,3.041,2.336,6.406,6.703,6.406
      c4.479,0,6.896-3.395,6.896-6.594C52.91,11.496,50.462,8.375,46.428,8.375z M49.546,19.154c-0.646,0.867-1.769,1.383-2.86,1.383
      c-3.396,0-4.771-4.422-4.771-7.107c0-1.168,0.197-2.362,1.292-3.312c0.675-0.57,1.602-0.925,2.525-0.925
      c3.48,0,4.658,4.56,4.658,6.946C50.389,17.2,50.22,18.285,49.546,19.154z"/>
    <path fill="#FFFFFF" d="M81.447,20.125c-3.709,0-5.24-2.074-5.72-5.75l1.933,0.004l6.739-2.666
      c-0.194-0.643-0.557-1.84-1.944-2.758c-0.836-0.529-1.867-0.78-2.87-0.78c-2.866,0-6.375,2.117-6.375,6.437
      c0,2.089,0.864,4.484,2.839,5.879c1.423,1.028,2.813,1.086,3.703,1.086c3.416,0,5.358-2.5,5.358-2.5
      C84.163,19.548,82.87,20.125,81.447,20.125z M75.66,12.825c0.109-3.057,2.029-3.851,3.145-3.851c1.506,0,2.872,1.346,2.872,2.458
      c0,0.392-0.122,0.56-0.649,0.752l-5.301,2.188c-0.005-0.032-0.014-0.061-0.017-0.094C75.71,14.27,75.643,13.289,75.66,12.825z"/>
    <path fill="#FFFFFF" d="M71.11,19.48V2.875c0-0.617,0.199-1.066,1-1.5h-3.8l-1.801,1h2v17.4c0,0.506-0.349,0.793-1,1.6h5.102
      l1-0.734c0,0-0.834-0.023-1.313-0.096C71.365,20.407,71.11,20.375,71.11,19.48z"/>
    <path fill="#FFFFFF" d="M31.429,8.375c-4.181,0-7.119,3.039-7.119,6.594c0,3.041,2.336,6.406,6.703,6.406
      c4.479,0,6.896-3.395,6.896-6.594C37.91,11.496,35.462,8.375,31.429,8.375z M34.546,19.154c-0.646,0.867-1.769,1.383-2.86,1.383
      c-3.396,0-4.771-4.422-4.771-7.107c0-1.168,0.197-2.362,1.292-3.312c0.675-0.57,1.602-0.925,2.525-0.925
      c3.479,0,4.658,4.56,4.658,6.946C35.389,17.2,35.22,18.285,34.546,19.154z"/>
    <path fill="#FFFFFF" d="M21.738,3.805c-0.621-0.426-3.112-2.33-8.262-2.33C6.262,1.475,2.11,6.571,2.11,12.057
      c0,4,2.907,10.22,10.717,10.22c3.3,0,6.158-0.625,8.884-1.414v-3.451c0-0.283,0-0.865,0-1.152c0-0.311,0.169-0.49,0.368-0.658
      l0.899-0.803H16.81l-1.699,1.26h4v4.382c-0.85,0.34-2.066,0.715-3.878,0.715c-6.166,0-10.19-4.979-10.19-10.297
      c0-4.949,3.345-8.347,7.812-8.347c3.336,0,5.291,1.689,6.254,2.623l-0.725,1.148l0.833-0.121L21.738,3.805z"/>
    <path fill="#FFFFFF" d="M66.71,8.375h-5.199c-1.518,0-3.572,0.225-5.174,1.544c-1.209,1.04-1.826,2.489-1.826,3.782
      c0,2.197,2.113,4.674,5.101,4.674l0.446-0.018c-0.099,0.289-0.104,0.613-0.104,0.984c0,0.873,0.448,1.232,0.846,1.74
      c-1.268,0.086-3.39,0.26-5.188,1.191c-1.719,0.891-2.5,2.146-2.5,3.395c0,2.086,2.108,4.205,6.195,4.205
      c4.848,0,7.104-2.5,7.104-5.242c0-1.913-1.612-3.477-3.31-4.717c-0.474-0.344-0.688-0.652-0.688-1.271s0.315-1.012,0.979-1.449
      c1.291-0.854,2.116-1.917,2.116-4.001c0-2.144-1.149-3.284-1.799-3.819h1.399L66.71,8.375z M64.71,25.473
      c0,1.732-1.386,3.104-4.061,3.104c-2.982,0-5.142-1.313-5.142-3.3c0-1.989,2-2.707,2.612-2.932
      c1.17-0.394,2.679-0.447,2.929-0.447c0.278,0,0.418,0,0.641,0.025C63.811,23.438,64.71,24.042,64.71,25.473z M62.671,16.691
      c-0.479,0.461-1.282,0.805-2.028,0.805c-2.564,0-3.781-3.094-3.781-5.021c0-0.748,0.201-1.625,0.709-2.229
      c0.477-0.576,1.312-0.95,2.089-0.95c2.476,0,3.755,3.079,3.755,5.294C63.412,15.108,63.354,16.027,62.671,16.691z"/>
</g>
  <rect x="2.11" y="1.375" fill="none" width="83" height="29"/>
</g>
</svg>
