<?xml version="1.0" encoding="UTF-8" standalone="no"?>
<svg width="36px" height="424px" viewBox="0 0 36 424" version="1.1" xmlns="http://www.w3.org/2000/svg" xmlns:xlink="http://www.w3.org/1999/xlink" xmlns:sketch="http://www.bohemiancoding.com/sketch/ns">
    <!-- Generator: "Sketch Internal" 3.0 (7561) - http://www.bohemiancoding.com/sketch -->
    <title>png</title>
    <description>Created with "Sketch Internal".</description>
    <defs></defs>
    <g id="Page-1" stroke="none" stroke-width="1" fill="none" fill-rule="evenodd" sketch:type="MSPage">
        <path d="M4.4,56 C2.5215,56 1.017,57.512 1.017,59.375 L1,79.625 C1,81.488 2.5215,83 4.4,83 L31.6,83 C33.4768,83 35,81.488 35,79.625 L35,62.75 C35,60.8853125 33.4768004,59.0683594 31.6000004,59.0683594 L18,59.0683594 L14.6,56 L4.4,56 Z" id="Imported-Layers" fill="#4A4A4A" sketch:type="MSShapeGroup"></path>
        <path d="M4.4,226 C2.5215,226 1.017,227.512 1.017,229.375 L1,249.625 C1,251.488 2.5215,253 4.4,253 L31.6,253 C33.4768,253 35,251.488 35,249.625 L35,232.75 C35,230.885312 33.4768004,229.03125 31.6000004,229.03125 L18,229.03125 L14.6,226 L4.4,226 Z" id="Imported-Layers" fill="#DD4B39" sketch:type="MSShapeGroup"></path>
        <path d="M29.124,32 L26.181,19.4217895 L36,10.9629474 L23.0562,9.85884211 L18,-2 L12.9438,9.85884211 L0,10.9629474 L9.819,19.4217895 L6.876,32 L18,25.3288421 L29.124,32 Z" id="Imported-Layers" fill="#4A4A4A" sketch:type="MSShapeGroup"></path>
        <path d="M29.124,203 L26.181,190.421789 L36,181.962947 L23.0562,180.858842 L18,169 L12.9438,180.858842 L0,181.962947 L9.819,190.421789 L6.876,203 L18,196.328842 L29.124,203 Z" id="Imported-Layers" fill="#DD4B39" sketch:type="MSShapeGroup"></path>
        <path d="M15,311 L21,311 L21,306 L15,306 L15,311 Z M3,293 L33,293 L33,288 L3,288 L3,293 Z M8,302 L28,302 L28,297 L8,297 L8,302 Z" id="Imported-Layers" fill="#DD4B39" sketch:type="MSShapeGroup"></path>
        <path d="M15,140 L21,140 L21,135 L15,135 L15,140 Z M3,122 L33,122 L33,117 L3,117 L3,122 Z M8,131 L28,131 L28,126 L8,126 L8,131 Z" id="Imported-Layers" fill="#4A4A4A" sketch:type="MSShapeGroup"></path>
        <path d="M32.2383333,336.711667 L29.9283333,333.91 C29.47,333.355 28.7766667,333 28,333 L8,333 C7.22333333,333 6.53,333.355 6.07166667,333.91 L3.76166667,336.711667 C3.28666667,337.288333 3,338.028333 3,338.833333 L3,359.666667 C3,361.506667 4.49166667,363 6.33333333,363 L29.6666667,363 C31.5066667,363 33,361.506667 33,359.666667 L33,338.833333 C33,338.028333 32.7133333,337.288333 32.2383333,336.711667 L32.2383333,336.711667 Z M9.18896484,347.973719 L14.4200188,347.973719 L14.4200188,344.470588 L21.5700181,344.470588 L21.5700181,347.973719 L26.8483564,347.973719 L18.0186606,356.836778 L9.18896484,347.973719 Z M8.88586096,335 L26.9072513,335 L29.4705882,338.294118 L6.52941176,338.294118 L8.88586096,335 Z" id="Imported-Layers" fill="#4A4A4A" sketch:type="MSShapeGroup"></path>
        <path d="M32.2383333,397.711667 L29.9283333,394.91 C29.47,394.355 28.7766667,394 28,394 L8,394 C7.22333333,394 6.53,394.355 6.07166667,394.91 L3.76166667,397.711667 C3.28666667,398.288333 3,399.028333 3,399.833333 L3,420.666667 C3,422.506667 4.49166667,424 6.33333333,424 L29.6666667,424 C31.5066667,424 33,422.506667 33,420.666667 L33,399.833333 C33,399.028333 32.7133333,398.288333 32.2383333,397.711667 L32.2383333,397.711667 Z M9.18896484,408.973719 L14.4200188,408.973719 L14.4200188,405.470588 L21.5700181,405.470588 L21.5700181,408.973719 L26.8483564,408.973719 L18.0186606,417.836778 L9.18896484,408.973719 Z M6.52941176,399.294118 L7.88586096,396.647059 L27.9072513,396.647059 L29.4705882,399.294118 L6.52941176,399.294118 L6.52941176,399.294118 Z" id="Imported-Layers" fill="#DD4A39" sketch:type="MSShapeGroup"></path>
    </g>
</svg>